<mxfile host="app.diagrams.net" modified="2022-09-24T17:00:39.450Z" agent="5.0 (Windows NT 10.0; Win64; x64) AppleWebKit/537.36 (KHTML, like Gecko) Chrome/105.0.0.0 Safari/537.36 Edg/105.0.1343.50" etag="YjXP5pmy-2aCnWXGIfM8" version="20.3.6" type="github">
  <diagram id="fElFLN0j0AT-Hj-ps2K8" name="Page-1">
    <mxGraphModel dx="992" dy="571" grid="1" gridSize="10" guides="1" tooltips="1" connect="1" arrows="1" fold="1" page="1" pageScale="1" pageWidth="850" pageHeight="1100" math="0" shadow="0">
      <root>
        <mxCell id="0" />
        <mxCell id="1" parent="0" />
        <mxCell id="jQKKsMbZL7x_OuYc7ReF-10" value="" style="verticalLabelPosition=bottom;verticalAlign=top;html=1;shape=mxgraph.basic.rect;fillColor2=none;strokeWidth=1;size=20;indent=5;fillColor=none;" vertex="1" parent="1">
          <mxGeometry x="280" y="80" width="180" height="270" as="geometry" />
        </mxCell>
        <mxCell id="jQKKsMbZL7x_OuYc7ReF-1" value="Manage Databse" style="ellipse;whiteSpace=wrap;html=1;" vertex="1" parent="1">
          <mxGeometry x="320" y="110" width="100" height="60" as="geometry" />
        </mxCell>
        <mxCell id="jQKKsMbZL7x_OuYc7ReF-2" value="Manage User" style="ellipse;whiteSpace=wrap;html=1;" vertex="1" parent="1">
          <mxGeometry x="320" y="190" width="100" height="60" as="geometry" />
        </mxCell>
        <mxCell id="jQKKsMbZL7x_OuYc7ReF-3" value="Manage Owner&#39;s" style="ellipse;whiteSpace=wrap;html=1;" vertex="1" parent="1">
          <mxGeometry x="320" y="270" width="100" height="60" as="geometry" />
        </mxCell>
        <mxCell id="jQKKsMbZL7x_OuYc7ReF-6" value="Admin" style="shape=umlActor;verticalLabelPosition=bottom;verticalAlign=top;html=1;outlineConnect=0;" vertex="1" parent="1">
          <mxGeometry x="160" y="190" width="30" height="60" as="geometry" />
        </mxCell>
        <mxCell id="jQKKsMbZL7x_OuYc7ReF-7" value="" style="endArrow=none;html=1;rounded=0;entryX=0;entryY=0.5;entryDx=0;entryDy=0;exitX=0.5;exitY=0.5;exitDx=0;exitDy=0;exitPerimeter=0;" edge="1" parent="1" source="jQKKsMbZL7x_OuYc7ReF-6" target="jQKKsMbZL7x_OuYc7ReF-1">
          <mxGeometry width="50" height="50" relative="1" as="geometry">
            <mxPoint x="540" y="230" as="sourcePoint" />
            <mxPoint x="590" y="180" as="targetPoint" />
          </mxGeometry>
        </mxCell>
        <mxCell id="jQKKsMbZL7x_OuYc7ReF-8" value="" style="endArrow=none;html=1;rounded=0;entryX=0;entryY=0.5;entryDx=0;entryDy=0;exitX=0.5;exitY=0.5;exitDx=0;exitDy=0;exitPerimeter=0;" edge="1" parent="1" source="jQKKsMbZL7x_OuYc7ReF-6" target="jQKKsMbZL7x_OuYc7ReF-2">
          <mxGeometry width="50" height="50" relative="1" as="geometry">
            <mxPoint x="540" y="230" as="sourcePoint" />
            <mxPoint x="590" y="180" as="targetPoint" />
          </mxGeometry>
        </mxCell>
        <mxCell id="jQKKsMbZL7x_OuYc7ReF-9" value="" style="endArrow=none;html=1;rounded=0;exitX=0.5;exitY=0.5;exitDx=0;exitDy=0;exitPerimeter=0;entryX=0;entryY=0.5;entryDx=0;entryDy=0;" edge="1" parent="1" source="jQKKsMbZL7x_OuYc7ReF-6" target="jQKKsMbZL7x_OuYc7ReF-3">
          <mxGeometry width="50" height="50" relative="1" as="geometry">
            <mxPoint x="540" y="230" as="sourcePoint" />
            <mxPoint x="590" y="180" as="targetPoint" />
          </mxGeometry>
        </mxCell>
      </root>
    </mxGraphModel>
  </diagram>
</mxfile>
